<svg xmlns="http://www.w3.org/2000/svg" xmlns:xlink="http://www.w3.org/1999/xlink" width="49" height="50.719" viewBox="0 0 49 50.719">
  <metadata><?xpacket begin="﻿" id="W5M0MpCehiHzreSzNTczkc9d"?>
<x:xmpmeta xmlns:x="adobe:ns:meta/" x:xmptk="Adobe XMP Core 5.6-c142 79.160924, 2017/07/13-01:06:39        ">
   <rdf:RDF xmlns:rdf="http://www.w3.org/1999/02/22-rdf-syntax-ns#">
      <rdf:Description rdf:about=""/>
   </rdf:RDF>
</x:xmpmeta>
                                                                                                    
                                                                                                    
                                                                                                    
                                                                                                    
                                                                                                    
                                                                                                    
                                                                                                    
                                                                                                    
                                                                                                    
                                                                                                    
                                                                                                    
                                                                                                    
                                                                                                    
                                                                                                    
                                                                                                    
                                                                                                    
                                                                                                    
                                                                                                    
                                                                                                    
                                                                                                    
                           
<?xpacket end="w"?></metadata>
<defs>
    <style>
      .cls-1 {
        fill: #00c6f6;
        fill-rule: evenodd;
        filter: url(#filter);
      }
    </style>
    <filter id="filter" x="7" y="7" width="49" height="50.719" filterUnits="userSpaceOnUse">
      <feOffset result="offset" dx="4.908" dy="-0.954" in="SourceAlpha"/>
      <feGaussianBlur result="blur"/>
      <feFlood result="flood" flood-color="#e93578"/>
      <feComposite result="composite" operator="in" in2="blur"/>
      <feBlend result="blend" in="SourceGraphic"/>
    </filter>
  </defs>
  <path id="D" class="cls-1" d="M47,18.763a20.961,20.961,0,0,0-5.906-6.236,20.405,20.405,0,0,0-7.912-3.221,24.948,24.948,0,0,0-9.377.144L7,12.716l8.75,45.014,16.805-3.267A24.941,24.941,0,0,0,41.3,51.084a20.508,20.508,0,0,0,6.132-5.935,20.793,20.793,0,0,0,3.143-7.978,25.822,25.822,0,0,0-.187-9.515A25.824,25.824,0,0,0,47,18.763ZM44.448,36.5a15.745,15.745,0,0,1-2.132,6.136,14.012,14.012,0,0,1-4.357,4.417,17.78,17.78,0,0,1-6.364,2.476L20.882,51.613l-6.832-35.15,10.712-2.082a17.787,17.787,0,0,1,6.829-.089,13.926,13.926,0,0,1,5.7,2.478,15.917,15.917,0,0,1,4.279,4.906,23.019,23.019,0,0,1,2.572,7.193A23.015,23.015,0,0,1,44.448,36.5Z" transform="translate(-7 -7)"/>
</svg>
