<?xml version="1.0"?>
<svg xmlns="http://www.w3.org/2000/svg" xmlns:xlink="http://www.w3.org/1999/xlink" version="1.1" id="Capa_1" x="0px" y="0px" viewBox="0 0 512 512" style="enable-background:new 0 0 512 512;" xml:space="preserve" width="512px" height="512px"><g><g>
	<g>
		<g>
			<polygon points="448,170.667 448,149.333 384,192 320,149.333 320,170.667 384,213.333    " data-original="#000000" class="active-path" data-old_color="#000000" fill="#00C6F6"/>
			<path d="M469.333,64H42.667C19.093,64,0,83.093,0,106.667v298.667C0,428.907,19.093,448,42.667,448h426.667     c23.573,0,42.453-19.093,42.453-42.667L512,106.667C512,83.093,492.907,64,469.333,64z M170.667,128c35.307,0,64,28.693,64,64     c0,35.413-28.693,64-64,64c-35.307,0-64-28.587-64-64C106.667,156.693,135.36,128,170.667,128z M298.667,384h-256v-21.333     c0-42.667,85.333-66.133,128-66.133c42.667,0,128,23.467,128,66.133V384z M469.333,256H298.667V128h170.667V256z" data-original="#000000" class="active-path" data-old_color="#000000" fill="#00C6F6"/>
		</g>
	</g>
</g></g> </svg>
